<?xml version="1.0" encoding="UTF-8"?>
<svg id="Camada_1" xmlns="http://www.w3.org/2000/svg" version="1.1" viewBox="0 0 405.1 405.1">
  <!-- Generator: Adobe Illustrator 29.6.1, SVG Export Plug-In . SVG Version: 2.1.1 Build 9)  -->
  <defs>
    <style>
      .st0 {
        fill: #fff;
      }
    </style>
  </defs>
  <path class="st0" d="M405.1,95.87v216.15c-1.35,5.58-1.83,11.31-3.22,16.9-8.8,35.61-39.24,65.33-75.11,73.28l-18.02,2.91H97.13c-51.41-3.39-93.25-43.86-96.37-95.81l.04-213.02C5.18,42.48,47.13,3.78,100.64,1.17c70.6-3.45,144.69,1.94,215.52.93,46.51,5.81,85.42,45.45,88.21,92.52l.73,1.26ZM77.39,120.72v164.87l1.18,1.18h78.97c14.11,0,33.73-10.66,41.32-22.62,13.01-20.53,12.27-67.61-19.6-69.68l8.13-3.3c20.83-12.47,16.56-48.37-.77-62.03-22.7-17.9-78.3-6.07-106.51-9.64l-2.72,1.22ZM305.6,129.79h-67.91v14.59l1.18,1.18h66.73v-15.78ZM246.38,232.34h80.15c1.13-.69,1.09-1.57,1.22-2.72,5.53-47.08-28.86-79.65-75.68-65.34-47.28,14.45-53.39,97.67-7.83,117.91,29.72,13.2,83.95,3.93,81.88-37.23h-26.45c-1.73,2.58-1.27,5-3.21,7.83-6.05,8.84-22.45,10.19-31.94,7.56-13.13-3.63-18.25-15.23-18.15-28.02Z"/>
  <path class="st0" d="M112.92,254.43v-44.96h46.2c.75,0,5.36,2.45,6.31,3.16,10.6,7.92,10.69,32.15-.91,39.31-.99.61-5.39,2.49-6.19,2.49h-45.41Z"/>
  <path class="st0" d="M112.92,184.22v-35.5h46.2c1.92,0,5.94,3.97,6.87,5.75,3.58,6.85,3.44,23.75-4.06,27.82-.71.38-4.77,1.92-5.18,1.92h-43.83Z"/>
  <path class="st0" d="M297.7,209.46h-51.33c2.05-17.48,18.58-29.84,36.1-23.83,10.58,3.63,13.76,13.71,15.23,23.83Z"/>
</svg>