<?xml version="1.0" encoding="UTF-8"?>
<svg id="Camada_1" xmlns="http://www.w3.org/2000/svg" version="1.1" viewBox="0 0 512 512">
  <!-- Generator: Adobe Illustrator 29.6.1, SVG Export Plug-In . SVG Version: 2.1.1 Build 9)  -->
  <defs>
    <style>
      .st0 {
        fill: #fff;
      }
    </style>
  </defs>
  <path class="st0" d="M333,0c1.04,1.65,3.8,1,5.49,1.02,89.78.94,159.31,30.42,171.39,128.5.87,7.05.51,14.44,2.13,21.35v205.82l-2.12,24.36c-13.71,98.09-78.95,128.36-170.39,129.49-1.69.02-4.44-.64-5.49,1.02-51.26-1.07-102.76,1.43-154,0-54.84-1.53-108.02-7.01-144.98-52.48C5.51,422.75,3.66,386.01,2.04,341.16c-2.02-55.9-1.96-112.85,0-168.77,1.56-44.46,3.26-83.22,32.56-119.33C71.9,7.09,124.49,1.55,180,0h153ZM166.79,47.25c-83.44,3.22-115.54,31.31-118.84,116.06-2.42,62.35-2.17,128.68,1.03,190.88,3.89,75.59,31.92,105.71,108.47,110.43,56.87,3.51,120.86,1.83,178-.08,40.3-1.35,77.93-.14,106.57-33.4,24.93-28.96,22.84-65.21,23.93-100.98,1.71-55.71,3.19-116.25.03-171.8-4.79-84.18-39.86-108.65-121.45-111.45-56.75-1.95-121.01-1.85-177.75.34Z"/>
  <path class="st0" d="M241.8,125.19c131.28-11.62,198.64,147,99.67,231.47-79.43,67.8-204.31,16.62-215.46-86.41-7.56-69.84,44.62-138.75,115.78-145.06ZM246.79,171.14c-59.12,5.74-92.66,72.33-65.31,124.62s102.07,61.1,140.49,15.44c50.1-59.55,2.49-147.59-75.18-140.05Z"/>
  <path class="st0" d="M386.74,89.16c43.98-7.42,50.58,55.16,11.5,60.45-41.16,5.57-46.96-54.47-11.5-60.45Z"/>
</svg>