<?xml version="1.0" encoding="UTF-8"?>
<svg id="Camada_1" xmlns="http://www.w3.org/2000/svg" version="1.1" viewBox="0 0 405.1 405.1">
  <!-- Generator: Adobe Illustrator 29.6.1, SVG Export Plug-In . SVG Version: 2.1.1 Build 9)  -->
  <defs>
    <style>
      .st0 {
        fill: #fff;
      }
    </style>
  </defs>
  <path class="st0" d="M405.1,95.87v216.15c-1.35,5.58-1.83,11.31-3.22,16.9-8.8,35.61-39.24,65.33-75.11,73.28l-18.02,2.91H97.13c-51.41-3.39-93.25-43.86-96.37-95.81l.04-213.02C5.18,42.48,47.13,3.78,100.64,1.17c70.6-3.45,144.69,1.94,215.52.93,46.51,5.81,85.42,45.45,88.21,92.52l.73,1.26ZM103.27,77.16c-36.9,3.55-33.43,58.93,2.94,58.93,39.61,0,38.4-62.91-2.94-58.93ZM135.82,327.79v-165.27l-1.18-1.18h-56.07l-1.18,1.18v165.27h58.44ZM215.58,161.34h-45.01v166.45h48.17v-90.32c0-23.43,15.2-37.65,38.73-33.96,13.69,2.15,22.07,18.78,22.07,31.59v92.69h48.96c-.73-29.8.97-59.78.03-89.57-1.24-39.63-6.03-73.5-53.34-76.87-24.35-1.73-42.71,2.42-57.8,21.87-.51.66.03,1.43-1.81,1v-22.88Z"/>
</svg>