<?xml version="1.0" encoding="UTF-8"?>
<svg id="Camada_1" xmlns="http://www.w3.org/2000/svg" version="1.1" viewBox="0 0 682.67 682.67">
  <!-- Generator: Adobe Illustrator 29.6.1, SVG Export Plug-In . SVG Version: 2.1.1 Build 9)  -->
  <defs>
    <style>
      .st0 {
        fill: #fff;
      }
    </style>
  </defs>
  <path class="st0" d="M24.01,661.37l44.02-163.05C-55.26,277.22,109,9.15,363.39,22.57c155.52,8.2,288.21,139.25,296.67,294.76,13.71,252.06-246.89,416.46-469.9,300.21l-166.14,43.84ZM100.01,585.51l99.22-25.27c143.34,90.95,336.81,26.58,392.8-133.72,69.34-198.53-108.68-393.06-312.86-342.86C101.22,127.41,22.64,338.29,126.11,489l-26.1,96.51Z"/>
  <path class="st0" d="M224.99,193.28c5.05-.86,23.94-1.1,28.42.27,2.18.67,5.15,3.58,6.59,5.4,5.6,7.04,25.49,56.03,29.03,66.83,2.8,8.56,1.69,10.6-2.6,18.09-4.76,8.33-18.55,20.87-21.42,27.86-3.2,7.81,6.68,20.04,11.24,26.69,22.23,32.48,54.9,59.79,91.28,75.24,6.97,2.96,15.2,8.31,21.86,2.24l29.17-36.09c6.1-4.89,14.78-.59,21,1.87,20.92,8.28,40.4,20.5,60.92,29.69,4.99,3.97,3.96,14.18,3.36,20.28-5.28,53.5-65.95,66.47-110.19,54.41-68.06-18.55-122.21-61.54-164.84-116.26-28.68-36.81-56.88-79.97-42.81-128.95,4.28-14.9,22.67-44.81,38.99-47.58Z"/>
</svg>